# xmcd CD database file
#
# Track frame offsets:
#	180
#	10684
#	24413
#	38454
#	54810
#	68294
#	83732
#	96862
#	112094
#	126074
#	140495
#	164567
#	192673
#	215458
#	233329
#	246200
#	259020
#	271380
#	284032
#	298739
#
# Disc length: 4110 seconds
#
# Revision: 0
# Processed by: cddbd v1.5.2PL0 Copyright (c) Steve Scherf et al.
# Submitted via: CDex 1.51
#
DISCID=18100c14
DTITLE=Jazz - Jazz
DYEAR=2005
DGENRE=Jazz
TTITLE0=Django Reinhardt - Finesse
TTITLE1=Django Reinhardt - Pour commencer
TTITLE2=Count Basie - Rockin' the blues
TTITLE3=Glenn Miller - Moonlight serenade
TTITLE4=Glenn Miller - Keep 'em flying
TTITLE5=Artie Shaw - Take your shoes off baby (and start runnin' through)
TTITLE6=Glenn Miller - (There'll be blue birds over) the white cliffs of Dover
TTITLE7=Artie Shaw - Two in one blues
TTITLE8=Artie Shaw and his orchestra - It's wonderful
TTITLE9=Woody Herman - Northwest passage
TTITLE10=Louis Armstrong - Stars fell on Alabama
TTITLE11=Louis Armstrong - Muskrat ramble
TTITLE12=Louis Armstrong - Royal Garden blues
TTITLE13=Charlie Parker - Relaxin' with Lee
TTITLE14=Les Brown - Red wing
TTITLE15=Les Brown - You're blase
TTITLE16=Nat King Cole - Wish I were somebody else
TTITLE17=Peggy Lee - Watermelon weather
TTITLE18=Peggy Lee - You got to my head
TTITLE19=Les Brown - I guess I'll have to change my mind
EXTD=YEAR: 2005
EXTT0=
EXTT1=
EXTT2=
EXTT3=
EXTT4=
EXTT5=
EXTT6=
EXTT7=
EXTT8=
EXTT9=
EXTT10=
EXTT11=
EXTT12=
EXTT13=
EXTT14=
EXTT15=
EXTT16=
EXTT17=
EXTT18=
EXTT19=
PLAYORDER=
